<?xml version="1.0" encoding="UTF-8"?><svg enable-background="new 0 0 1000 1000" fill="#FFFFFF" version="1.1" viewBox="0 0 1e3 1e3" xml:space="preserve" xmlns="http://www.w3.org/2000/svg"><path d="m898.4 96.9c21.9 0 39.7 17.8 39.7 39.7v479.4c0 21.9-17.8 39.7-39.7 39.7h-438.1l-277.8 198.4v-198.4h-80.9c-21.9 0-39.7-17.8-39.7-39.7v-479.4c0-21.9 17.8-39.7 39.7-39.7h796.8m0-51.8h-796.8c-50.5 0-91.6 41-91.6 91.5v479.4c0 50.5 41.1 91.6 91.6 91.6h29.1v247.4l82-58.6 264.3-188.8h421.5c50.5 0 91.6-41.1 91.6-91.6v-479.4c-0.1-50.5-41.2-91.5-91.7-91.5z"/><path d="m173.5 371.8c0 44.8 36.3 81.1 81.1 81.1s81.1-36.3 81.1-81.1-36.3-81.1-81.1-81.1c-44.8-0.1-81.1 36.3-81.1 81.1z"/><path d="m418.8 371.8c0 44.8 36.3 81.1 81.1 81.1s81.1-36.3 81.1-81.1-36.3-81.1-81.1-81.1c-44.7-0.1-81.1 36.3-81.1 81.1z"/><path d="m659.2 371.8c0 44.8 36.3 81.1 81.1 81.1s81.2-36.3 81.2-81.1-36.3-81.1-81.2-81.1c-44.8-0.1-81.1 36.3-81.1 81.1z"/></svg>